# xmcd
#
# Track frame offsets: 
#        150
#        23656
#        38525
#        79655
#        95408
#        134135
#        145493
#        163893
#        176533
#        188274
#        198141
#        217747
#        231787
#        248077
#        264597
#        279849
#        295282
#
# Disc length: 4160 seconds
#
# Revision: 0
# Processed by: cddbd v1.5.2PL0 Copyright (c) Steve Scherf et al.
# Submitted via: ExactAudioCopy v0.99pb5
#
DISCID=e5103e11
DTITLE=Creepy John Thomas  - Brother Bat Bone+ Same  (1969-70 australi
DTITLE=a  heavy psych,hard rock)  FLAC
DYEAR=1900
DGENRE=
TTITLE0=Down In The Bottom
TTITLE1=What's The Matter With The Mill
TTITLE2=Brother Bat Bone
TTITLE3=This Is My Body
TTITLE4=Standing In The Sunshine
TTITLE5=100 Lib. Noomy
TTITLE6=Gut Runs Great Stone
TTITLE7=(Do I Figure) In Your Life
TTITLE8=You've Got To Hide
TTITLE9=One Way Track Blues
TTITLE10=Trippin' Like A Dog
TTITLE11=Ride A Rainbow
TTITLE12=Green Eyed Lady
TTITLE13=Sun And Woman
TTITLE14=Lay It On Me
TTITLE15=Bring Back The Love
TTITLE16=Moon And Eyes Song
EXTD=
EXTT0=
EXTT1=
EXTT2=
EXTT3=
EXTT4=
EXTT5=
EXTT6=
EXTT7=
EXTT8=
EXTT9=
EXTT10=
EXTT11=
EXTT12=
EXTT13=
EXTT14=
EXTT15=
EXTT16=
PLAYORDER=
